<?xml version="1.0" encoding="utf-8"?>
<!-- Generator: Adobe Illustrator 19.2.0, SVG Export Plug-In . SVG Version: 6.00 Build 0)  -->
<svg version="1.1" id="Layer_1" xmlns="http://www.w3.org/2000/svg" xmlns:xlink="http://www.w3.org/1999/xlink" x="0px" y="0px"
	 viewBox="0 0 606 151.6" style="enable-background:new 0 0 606 151.6;" xml:space="preserve">
<style type="text/css">
	.st0{fill:#21170C;}
	.st1{fill:#CCDFCF;}
	.st2{fill:#2F170C;}
	.st3{fill:#BFA56A;}
	.st4{fill:#3C2712;}
	.st5{fill:#F69320;}
	.st6{fill:#B48B2E;}
	.st7{fill:#D5EEEE;}
	.st8{fill:#FFF2E3;}
	.st9{fill:#E7B69B;}
	.st10{fill:#C2A561;}
	.st11{fill:#F1C49B;}
	.st12{fill:#FABE77;}
	.st13{fill:#B5815A;}
</style>
<g>
	<rect x="-2.5" y="136.1" class="st0" width="612.5" height="17.5"/>
	<g>
		<g>
			<path class="st1" d="M396.6,67.5c-0.3-0.3-1.5-2-0.8-2.2c0.8-0.2,0.8-1,0.8-1.6s-0.2-0.9-0.5-2.2s0-1.6,0-1.6H392h-0.6h-4.1
				c0,0,0.2,0.2,0,1.6s-0.5,1.6-0.5,2.2c0,0.6,0,1.4,0.8,1.6c0.7,0.2-0.5,1.8-0.8,2.2c-8.1,1.9-14.1,8.3-14.1,15.9
				c0,0.9,0,3.6,0,4.1v48.8c0,2.3,1.9,4.3,4.3,4.3h29.5c2.3,0,4.3-1.9,4.3-4.3V87.5c0-0.5,0-3.2,0-4.1
				C410.7,75.8,404.7,69.4,396.6,67.5z"/>
			<rect x="386.2" y="50.9" class="st2" width="11" height="7.9"/>
		</g>
		<g>
			<path class="st3" d="M375.2,59.2L375.2,59.2c0.1,0-9.2-12.3-9.9-13.3s-0.9-24-0.9-24h-5.1h-0.8h-5.1c0,0-0.3,23-0.9,24
				c-0.7,1-9.9,13.3-9.9,13.3h0.1c-0.6,0.8-1,1.8-1,2.9v73.5c0,2.7,2.2,4.9,4.9,4.9h24.9c2.7,0,4.9-2.2,4.9-4.9V62.2
				C376.2,61,375.8,60,375.2,59.2z"/>
			<rect x="352.2" y="10.9" class="st2" width="13.3" height="10.3"/>
		</g>
		<g>
			<path class="st3" d="M506.6,59.2L506.6,59.2c0.1,0-9.2-12.3-9.9-13.3s-0.9-24-0.9-24h-5.1h-0.8h-5.1c0,0-0.3,23-0.9,24
				c-0.7,1-9.9,13.3-9.9,13.3h0.1c-0.6,0.8-1,1.8-1,2.9v73.5c0,2.7,2.2,4.9,4.9,4.9h24.9c2.7,0,4.9-2.2,4.9-4.9V62.2
				C507.6,61,507.2,60,506.6,59.2z"/>
			<rect x="483.6" y="10.9" class="st2" width="13.3" height="10.3"/>
		</g>
		<g>
			<path class="st4" d="M212.1,79.9c-5.7-9-9.7-9-11.7-16s-2-25-2-25H193h-0.9h-5.5c0,0,0,18-2,25s-6,7-11.7,16s0,55.7,0,55.7
				s0.5,2,4.6,3.7c3.6,1.5,12.9,1.4,15,1.3c2.1,0,11.4,0.1,15-1.3c4.1-1.7,4.6-3.7,4.6-3.7S217.8,88.9,212.1,79.9z"/>
			<path class="st5" d="M198.7,38.2h-12.2c-0.1,0-0.2-0.1-0.2-0.2v-8.8c0-0.1,0.1-0.2,0.2-0.2h12.2c0.1,0,0.2,0.1,0.2,0.2V38
				C198.9,38.1,198.8,38.2,198.7,38.2z"/>
			<rect x="186.4" y="27.9" class="st6" width="12.4" height="9.1"/>
		</g>
		<g>
			<path class="st7" d="M312.7,52.5c0,0-0.1-3.8-2.8-6.5s-5.1-3-5.4-4.5s0-33.5,0-33.5s1.8-0.4,1.6-1.3s-0.5-1.6-1.7-1.6
				c-1,0-3.7,0-4.9,0c0,0-0.2,0-0.6,0c-1.2,0-3.9,0-4.9,0c-1.3,0-1.6,0.8-1.7,1.6s1.6,1.3,1.6,1.3s0.2,32,0,33.5s-2.6,1.8-5.4,4.5
				s-2.8,6.5-2.8,6.5c0,0.3-0.3,2.3-0.3,2.8V136c0,2.5,2,4.6,4.6,4.6h18.6c2.5,0,4.6-2,4.6-4.6V55.3C313,54.8,312.7,52.9,312.7,52.5
				z"/>
			<rect x="292.5" class="st2" width="13.3" height="3.7"/>
		</g>
		<g>
			<path class="st7" d="M470.9,52.5c0,0-0.1-3.8-2.8-6.5s-5.1-3-5.4-4.5s0-33.5,0-33.5s1.8-0.4,1.6-1.3s-0.5-1.6-1.7-1.6
				c-1,0-3.7,0-4.9,0c0,0-0.2,0-0.6,0c-1.2,0-3.9,0-4.9,0c-1.3,0-1.6,0.8-1.7,1.6s1.6,1.3,1.6,1.3s0.2,32,0,33.5s-2.6,1.8-5.4,4.5
				s-2.8,6.5-2.8,6.5c0,0.3-0.3,2.3-0.3,2.8V136c0,2.5,2,4.6,4.6,4.6h18.6c2.5,0,4.6-2,4.6-4.6V55.3C471.2,54.8,471,52.9,470.9,52.5
				z"/>
			<rect x="450.7" class="st2" width="13.3" height="3.7"/>
		</g>
		<g>
			<path class="st8" d="M273.8,49.4c-2-6.5-1.8-27.5-1.8-27.5h-5h-1.6h-5c0,0,0.2,21-1.8,27.5c-1.3,4.3-9.8,19.3-9.8,21.1v65.4
				c0,2.6,2.1,4.6,4.6,4.6H279c2.6,0,4.6-2.1,4.6-4.6V70.6C283.6,68.7,275.1,53.7,273.8,49.4z"/>
			<rect x="260.8" y="12.5" class="st2" width="11" height="7.9"/>
		</g>
		<g>
			<path class="st8" d="M155.7,49.4c-2-6.5-1.8-27.5-1.8-27.5h-5h-1.6h-5c0,0,0.2,21-1.8,27.5c-1.3,4.3-9.8,19.3-9.8,21.1v65.4
				c0,2.6,2.1,4.6,4.6,4.6h25.4c2.6,0,4.6-2.1,4.6-4.6V70.6C165.5,68.7,157,53.7,155.7,49.4z"/>
			<rect x="142.7" y="12.5" class="st2" width="11" height="7.9"/>
		</g>
		<g>
			<path class="st9" d="M436.9,56.4c0,0-4.2-2.9-5.3-7.2c-1.1-4.2-1.3-28-1.3-28v-4.5h-5.5h-0.4h-5.5v4.5c0,0-0.3,23.8-1.3,28
				c-1.1,4.2-5.3,7.2-5.3,7.2c-2,0.6-3.5,2.4-3.5,4.5v74.9c0,2.6,2.1,4.7,4.7,4.7h22.2c2.6,0,4.7-2.1,4.7-4.7V61
				C440.4,58.8,438.9,57,436.9,56.4z"/>
			<rect x="419" y="9.6" class="st2" width="11" height="5.6"/>
		</g>
		<g>
			<path class="st10" d="M86.3,79.9h-0.6c-3.2-1.1-7.1-2.8-7.4-4.2c-0.6-2.5,1.4-4.8,1.4-4.8v-3l-1.5-1.5l1.2-1.8h-6.7h-0.4h-6.7
				l1.2,1.8l-1.5,1.5v3c0,0,1.9,2.2,1.4,4.8c-0.3,1.5-4.2,3.1-7.4,4.2h-0.6c-6.6,0-12,5.4-12,12l3,36.7c0,6.6,2.4,12,9,12h27.7
				c6.6,0,9-5.4,9-12l3-36.7C98.3,85.3,92.9,79.9,86.3,79.9z"/>
			<rect x="67" y="56.9" class="st2" width="11" height="6.4"/>
		</g>
		<g>
			<path class="st11" d="M339.5,72.3c-0.9-0.5-2.2-1.3-3.5-2.6c-2.6-2.5-3.4-4.8-3.4-4.8s1.6-9,1.4-11.5s-2.8-9.2-2.8-10.8
				s1.2-2.5,1.2-2.5h-12.9c0,0,1.2,1,1.2,2.5s-2.5,8.2-2.8,10.8s1.4,11.5,1.4,11.5s-0.7,2.2-3.4,4.8c-1.3,1.3-2.6,2.1-3.5,2.6
				c-2.2,0.3-3.9,2.1-3.9,4.4v59.4c0,2.4,2,4.4,4.4,4.4h25.8c2.4,0,4.4-2,4.4-4.4V76.7C343.3,74.4,341.6,72.6,339.5,72.3z"/>
			<rect x="319.9" y="32.6" class="st2" width="12.1" height="6.8"/>
		</g>
		<g>
			<path class="st1" d="M241.3,67.5c-0.3-0.3-1.5-2-0.8-2.2c0.8-0.2,0.8-1,0.8-1.6s-0.2-0.9-0.5-2.2s0-1.6,0-1.6h-4.1h-0.6H232
				c0,0,0.2,0.2,0,1.6s-0.5,1.6-0.5,2.2c0,0.6,0,1.4,0.8,1.6c0.7,0.2-0.5,1.8-0.8,2.2c-8.1,1.9-14.1,8.3-14.1,15.9
				c0,0.9,0,3.6,0,4.1v48.8c0,2.3,1.9,4.3,4.3,4.3h29.5c2.3,0,4.3-1.9,4.3-4.3V87.5c0-0.5,0-3.2,0-4.1
				C255.4,75.8,249.4,69.4,241.3,67.5z"/>
			<rect x="230.9" y="50.9" class="st2" width="11" height="7.9"/>
		</g>
		<g>
			<path class="st7" d="M604.3,52.5c0,0-0.1-3.8-2.8-6.5s-5.1-3-5.4-4.5s0-33.5,0-33.5s1.8-0.4,1.6-1.3s-0.5-1.6-1.7-1.6
				c-1,0-3.7,0-4.9,0c0,0-0.2,0-0.6,0c-1.2,0-3.9,0-4.9,0c-1.3,0-1.6,0.8-1.7,1.6s1.6,1.3,1.6,1.3s0.2,32,0,33.5s-2.6,1.8-5.4,4.5
				s-2.8,6.5-2.8,6.5c0,0.3-0.3,2.3-0.3,2.8V136c0,2.5,2,4.6,4.6,4.6h18.6c2.5,0,4.6-2,4.6-4.6V55.3
				C604.6,54.8,604.4,52.9,604.3,52.5z"/>
			<rect x="584.1" class="st2" width="13.3" height="3.7"/>
		</g>
		<g>
			<path class="st8" d="M565.5,49.4c-2-6.5-1.8-27.5-1.8-27.5h-5h-1.6h-5c0,0,0.2,21-1.8,27.5c-1.3,4.3-9.8,19.3-9.8,21.1v65.4
				c0,2.6,2.1,4.6,4.6,4.6h25.4c2.6,0,4.6-2.1,4.6-4.6V70.6C575.3,68.7,566.8,53.7,565.5,49.4z"/>
			<rect x="552.5" y="12.5" class="st2" width="11" height="7.9"/>
		</g>
		<g>
			<path class="st11" d="M128.8,72.3c-0.9-0.5-2.2-1.3-3.5-2.6c-2.6-2.5-3.4-4.8-3.4-4.8s1.6-9,1.4-11.5s-2.8-9.2-2.8-10.8
				s1.2-2.5,1.2-2.5h-12.9c0,0,1.2,1,1.2,2.5s-2.5,8.2-2.8,10.8s1.4,11.5,1.4,11.5s-0.7,2.2-3.4,4.8c-1.3,1.3-2.6,2.1-3.5,2.6
				c-2.2,0.3-3.9,2.1-3.9,4.4v59.4c0,2.4,2,4.4,4.4,4.4H128c2.4,0,4.4-2,4.4-4.4V76.7C132.6,74.4,130.9,72.6,128.8,72.3z"/>
			<rect x="109.3" y="32.6" class="st2" width="12.1" height="6.8"/>
		</g>
		<g>
			<path class="st11" d="M538.6,72.3c-0.9-0.5-2.2-1.3-3.5-2.6c-2.6-2.5-3.4-4.8-3.4-4.8s1.6-9,1.4-11.5s-2.8-9.2-2.8-10.8
				s1.2-2.5,1.2-2.5h-12.9c0,0,1.2,1,1.2,2.5s-2.5,8.2-2.8,10.8s1.4,11.5,1.4,11.5s-0.7,2.2-3.4,4.8c-1.3,1.3-2.6,2.1-3.5,2.6
				c-2.2,0.3-3.9,2.1-3.9,4.4v59.4c0,2.4,2,4.4,4.4,4.4h26c2.4,0,4.4-2,4.4-4.4V76.7C542.4,74.4,540.7,72.6,538.6,72.3z"/>
			<rect x="519.1" y="32.6" class="st2" width="12.1" height="6.8"/>
		</g>
		<g>
			<path class="st12" d="M42,98.1l-7.3-3.3c0,0-1-1.6-1.1-2.1s-1.7-1.4-1.7-1.4s0.6-2.1,0.9-4s-0.6-3.5,0-5.1s2.6-5.2,2.6-5.2H26
				h-0.1h-9.4c0,0,2,3.6,2.6,5.2s-0.2,3.2,0,5.1s0.9,4,0.9,4s-1.6,0.9-1.8,1.4s-1.1,2.1-1.1,2.1l-7.3,3.3c-3.6,0.7-6.4,4-6.4,7.8
				v26.7c0,4.4,3.6,8,8,8h29c4.4,0,8-3.6,8-8v-26.7C48.4,102.1,45.7,98.8,42,98.1z"/>
			<path class="st13" d="M25.9,75.7H26h7.6c0.8-1.3,1.3-2.9,1.3-4.6c0-4.9-4-8.9-8.9-8.9s-8.9,4-8.9,8.9c0,1.7,0.5,3.3,1.3,4.6H25.9
				z"/>
		</g>
	</g>
</g>
</svg>
