<?xml version="1.0" standalone="no"?>
<!DOCTYPE svg PUBLIC "-//W3C//DTD SVG 20010904//EN"
 "http://www.w3.org/TR/2001/REC-SVG-20010904/DTD/svg10.dtd">
<svg version="1.0" xmlns="http://www.w3.org/2000/svg"
 width="700.000000pt" height="700.000000pt" viewBox="0 0 700.000000 700.000000"
 preserveAspectRatio="xMidYMid meet">
<metadata>
Created by potrace 1.11, written by Peter Selinger 2001-2013
</metadata>
<g transform="translate(0.000000,700.000000) scale(0.100000,-0.100000)"
fill="#000000" stroke="none">
<path d="M3119 6770 c0 -34 0 -520 0 -543 1 -16 25 -17 408 -15 l408 3 0 288
c0 249 -2 287 -15 288 -8 1 -192 2 -408 3 l-392 1 -1 -25z"/>
<path d="M3214 6142 c-19 -3 -22 -10 -23 -55 0 -51 -8 -95 -32 -188 -17 -66
-5 -113 36 -144 31 -25 33 -28 23 -58 -15 -42 -68 -117 -84 -117 -7 0 -54 -14
-105 -30 -283 -93 -535 -268 -691 -481 -120 -163 -177 -300 -214 -509 -11 -62
-12 -4003 -1 -4065 10 -56 55 -138 96 -173 35 -31 108 -68 151 -77 19 -4 539
-8 1155 -7 1033 0 1124 1 1170 17 93 32 167 104 202 196 15 40 16 212 17 2014
1 1084 -2 2006 -6 2050 -24 245 -138 482 -326 673 -78 79 -211 192 -228 192
-3 0 -18 8 -32 19 -86 61 -376 181 -437 181 -17 0 -85 107 -85 135 0 11 16 32
35 48 32 25 35 32 35 80 0 29 -9 86 -21 127 -11 41 -21 96 -22 123 -1 35 -5
47 -16 47 -141 3 -582 4 -597 2z"/>
</g>
</svg>
