<svg xmlns="http://www.w3.org/2000/svg" width="46" height="32" viewBox="0 0 46 32">
  <path d="M45.4843987,21.3333333 L42.0204776,0.439852247 C41.965484,0.16494862 41.745574,0 41.4706382,0 L2.26786031,0 C2.10291169,0 1.93796307,0.0549936121 1.88296946,0.16494862 C1.55307222,0.549839471 0.78332273,1.42954396 1.05822636,2.19932567 C1.27816859,2.74916514 1.99292446,2.85912015 2.92765479,3.02406877 C3.53245565,3.13402377 4.19225013,3.244011 4.85204461,3.46392101 C5.84173633,3.84881186 6.44653719,5.8281953 6.55652442,6.37800256 C6.61151803,6.54295117 11.4499894,31.5601478 11.4499894,31.5601478 C11.504983,31.8350514 11.724893,32 11.9998289,32 L30.9689201,32 C31.2438238,32 31.463766,31.8350514 31.5187596,31.5601478 C31.5187596,31.5601478 35.8074237,7.86254013 36.0823273,7.03779703 C36.357231,6.21305394 37.4569099,3.35393379 38.4466016,3.35393379 C39.1613897,4.17867689 40.0960878,10.2817758 40.5909337,13.9106454 C41.4156768,19.6288535 41.745574,21.1683847 42.2404199,21.498282 C42.3503749,21.5532756 42.4053685,21.608237 42.4603621,21.6632306 C42.4603621,21.6632306 42.4603621,21.7182242 42.4603621,21.7182242 C42.5703171,21.9931278 42.6803043,21.9931278 43.3400988,22.2680637 C43.6150024,22.3780187 43.8899383,22.4330123 44.1648419,22.4330123 C44.3847842,22.4330123 44.6046942,22.3780187 44.7696428,22.3230573 C45.2644886,22.103115 45.4294373,21.7182564 45.4294373,21.6632628 C45.4844309,21.5533078 45.5393923,21.4433206 45.4844309,21.3333655 L45.4843987,21.3333333 Z M44.3297583,21.3333333 C44.2747647,21.3883269 44.1098161,21.3883269 43.7249575,21.2783397 C43.6150024,21.2233461 43.5050152,21.2233461 43.4500538,21.1683847 C43.3400988,20.9484425 43.1201566,20.8384875 42.955208,20.6735389 C42.6253107,20.068738 42.1304649,16.604817 41.6906126,13.7456968 C40.4260173,5.0584136 39.8211842,2.36424207 38.6115825,2.25428706 C36.632199,2.08933844 35.5875137,5.00341999 35.1476615,6.26804755 C34.8727578,7.09279065 33.0033294,17.2096501 31.7936954,24.2474471 L11.2301116,24.2474471 L7.9311392,6.76289341 C7.87614559,6.59794479 7.49128696,3.24397878 5.18200628,2.4742293 C4.46721819,2.14433206 3.75246232,2.03437705 3.09266784,1.92438982 C2.7627706,1.86939621 2.37787975,1.92438982 2.10297612,1.70444759 C2.15796973,1.53949897 2.32291835,1.31955674 2.48786697,1.09964673 L40.975889,1.09964673 L44.329855,21.3333333 C44.3848486,21.3333333 44.329855,21.3333333 44.329855,21.3333333 L44.3297583,21.3333333 Z M19.752414,6.37797034 L13.4293728,6.37797034 C13.0994756,6.37797034 12.8795334,6.59791257 12.8795334,6.92780981 C12.8795334,7.25770705 13.0994756,7.47764928 13.4293728,7.47764928 L19.2025745,7.47764928 L19.2025745,13.0859023 L15.5737049,13.0859023 C15.2438076,13.0859023 15.0238654,13.3058446 15.0238654,13.6357418 C15.0238654,13.9656391 15.2438076,14.1855813 15.5737049,14.1855813 L19.2025745,14.1855813 L19.2025745,19.6838794 L15.1338526,19.6838794 C14.8039554,19.6838794 14.5840132,19.9038216 14.5840132,20.2337188 C14.5840132,20.5636161 14.8039554,20.7835583 15.1338526,20.7835583 L19.752414,20.7835583 C20.0823112,20.7835583 20.3022535,20.5636161 20.3022535,20.2337188 L20.3022535,6.92787424 C20.3022535,6.597977 20.0273498,6.37803477 19.752414,6.37803477 L19.752414,6.37797034 Z"/>
</svg>
