<svg xmlns="http://www.w3.org/2000/svg" width="32" height="32" viewBox="0 0 32 32">
  <path d="M31.130545,30.9003244 L29.7010054,30.9003244 L21.2886512,18.0343709 C21.1786965,17.9244162 21.0687096,17.8144293 20.9037615,17.8144293 L29.9759082,1.09967562 L31.130545,1.09967562 C31.4604412,1.09967562 31.6803828,0.879734053 31.6803828,0.54983781 C31.6803828,0.219941567 31.4604412,0 31.130545,0 L1.54983781,0 C1.21994157,0 1,0.219941567 1,0.54983781 C1,0.879734053 1.21994157,1.09967562 1.54983781,1.09967562 L2.70447466,1.09967562 L11.7766213,17.7594359 C11.6116732,17.7594359 11.4467251,17.8693906 11.3917317,17.9793775 L2.97937746,30.9003244 L1.54983781,30.9003244 C1.21994157,30.9003244 1,31.1202659 1,31.4501622 C1,31.7800584 1.21994157,32 1.54983781,32 L31.130545,32 C31.4604412,32 31.6803828,31.7800584 31.6803828,31.4501622 C31.6803828,31.1202659 31.40548,30.9003244 31.130545,30.9003244 Z M3.9690984,1.09967562 L14.1958819,1.09967562 L15.7903697,17.0996434 L12.6563554,17.0996434 L3.9690984,1.09967562 Z M12.161511,18.8591115 L15.8453631,18.8591115 L14.5807716,30.9003244 L4.29899465,30.9003244 L12.161511,18.8591115 Z"/>
</svg>
