<svg xmlns="http://www.w3.org/2000/svg" width="32" height="32" viewBox="0 0 32 32">
  <path d="M30.1111223,0.165232414 C30.0009781,0.0550882285 29.8357457,0 29.7255692,0 L2.5723652,0 C2.40713278,0 2.24190037,0.0550882285 2.13175618,0.165232414 C2.021612,0.275376599 1.96652377,0.440609012 2.021612,0.605841426 L5.6567251,31.5043028 C5.71181333,31.7796794 5.9321017,32 6.20751057,32 L26.0354002,32 C26.3107768,32 26.5310974,31.7796794 26.5861857,31.5043028 L30.2212988,0.605841426 C30.276387,0.440609012 30.2212988,0.275376599 30.1111546,0.165232414 L30.1111223,0.165232414 Z M26.7514181,20.8743723 L5.54658091,20.9294606 L3.17823889,1.10157094 L29.0095836,1.10157094 L26.7514181,20.8743723 Z"/>
</svg>
